#!OML:ASF H:\Martial Arts Walks\Project 1\Capture day 1\Session 1\male.ASF
:FULLY-SPECIFIED
:DEGREES
1344
root -0.464323 14.1479 19.3593 11.577 32.6354 11.1347
lowerback 12.4769 3.3038 -10.8749
upperback -2.03595 2.60126 -1.08276
thorax -9.73441 1.81967 4.39894
lowerneck 0.507985 -13.3125 -12.9298
upperneck 3.26316 -18.1962 11.3308
head 3.10367 -9.07609 4.6224
rclavicle 3.44394e-014 1.63003e-014
rhumerus 45.4756 -18.7172 -58.7598
rradius 18.3301
rwrist 27.0575
rhand -20.1624 -30.0118
rfingers 7.12502
rthumb 6.18299 -59.9016
lclavicle 3.44394e-014 1.63003e-014
lhumerus -71.2513 -15.8008 102.476
lradius 101.752
lwrist 62.803
lhand -6.02964 40.2653
lfingers 7.12502
lthumb 19.8039 69.2763
rfemur -62.7742 -28.8634 6.92577
rtibia 66.5459
rfoot -3.99243 13.9348
rtoes 9.97766
lfemur 7.53757 4.79731 -11.12
ltibia 32.4188
lfoot -18.9676 28.9449
ltoes -33.4268
1345
root -0.469815 14.1383 19.3695 11.519 32.5675 11.0627
lowerback 12.515 3.31152 -10.9779
upperback -2.03515 2.58467 -1.14651
thorax -9.75597 1.81616 4.38875
lowerneck 0.527351 -13.3137 -12.8976
upperneck 3.17005 -18.2047 11.4985
head 3.08713 -9.07858 4.67015
rclavicle -2.59414e-014 4.33351e-014
rhumerus 45.384 -18.6311 -58.7375
rradius 18.3106
rwrist 27.0622
rhand -20.0701 -30.0204
rfingers 7.12502
rthumb 6.27213 -59.9075
lclavicle -2.59414e-014 4.33351e-014
lhumerus -71.3354 -15.7427 102.474
lradius 101.941
lwrist 62.2635
lhand -5.83796 40.0112
lfingers 7.12502
lthumb 19.9881 69.0031
rfemur -62.8641 -28.7317 6.99368
rtibia 66.7296
rfoot -4.07179 13.8392
rtoes 9.93737
lfemur 7.60797 4.79155 -11.0365
ltibia 32.4347
lfoot -18.9324 29.031
ltoes -33.4168
1346
root -0.475684 14.1285 19.3806 11.4892 32.4915 11.0253
lowerback 12.5448 3.31727 -11.115
upperback -2.03798 2.56027 -1.21683
thorax -9.77717 1.81077 4.39223
lowerneck 0.573893 -13.3241 -12.8658
upperneck 3.0614 -18.2267 11.6568
head 3.06236 -9.08902 4.71652
rclavicle -3.57315e-014 -5.96354e-015
rhumerus 45.3481 -18.6289 -58.8426
rradius 18.2444
rwrist 27.1909
rhand -19.9678 -29.9873
rfingers 7.12502
rthumb 6.37095 -59.8715
lclavicle -3.57315e-014 -5.96354e-015
lhumerus -71.4497 -15.6968 102.445
lradius 102.141
lwrist 61.833
lhand -5.74151 39.8225
lfingers 7.12502
lthumb 20.0808 68.8048
rfemur -62.9781 -28.6044 7.04541
rtibia 66.9277
rfoot -4.16003 13.7335
rtoes 9.97053
lfemur 7.69769 4.78489 -10.9821
ltibia 32.3989
lfoot -18.8614 29.1192
ltoes -33.4439
1347
root -0.481695 14.1195 19.3922 11.4907 32.4155 11.0292
lowerback 12.5684 3.322 -11.2844
upperback -2.04379 2.52948 -1.29233
thorax -9.79877 1.80412 4.40945
lowerneck 0.641266 -13.3428 -12.8421
upperneck 2.94856 -18.2602 11.7966
head 3.03337 -9.10643 4.75922
rclavicle -3.88127e-014 -1.55052e-014
rhumerus 45.35 -18.6886 -59.025
rradius 18.1436
rwrist 27.4267
rhand -19.8839 -29.9561
rfingers 7.12502
rthumb 6.45188 -59.8379
lclavicle -3.88127e-014 -1.55052e-014
lhumerus -71.5774 -15.6712 102.402
lradius 102.327
lwrist 61.5357
lhand -5.71689 39.7115
lfingers 7.12502
lthumb 20.1045 68.6913
rfemur -63.1019 -28.498 7.07298
rtibia 67.1235
rfoot -4.25368 13.6382
rtoes 9.99783
lfemur 7.8019 4.77238 -10.9653
ltibia 32.3135
lfoot -18.7614 29.2029
ltoes -33.4949
1348
root -0.486967 14.1114 19.4049 11.521 32.3253 11.0565
lowerback 12.5596 3.32984 -11.4704
upperback -2.05219 2.50449 -1.3685
thorax -9.80626 1.80072 4.43491
lowerneck 0.722137 -13.367 -12.8274
upperneck 2.84042 -18.3009 11.9073
head 3.00251 -9.12843 4.79491
rclavicle 1.86858e-014 1.78906e-014
rhumerus 45.3772 -18.7927 -59.2534
rradius 18.0194
rwrist 27.7522
rhand -19.8318 -29.9404
rfingers 7.12502
rthumb 6.50217 -59.8206
lclavicle 1.86858e-014 1.78906e-014
lhumerus -71.7137 -15.668 102.353
lradius 102.491
lwrist 61.3825
lhand -5.75869 39.6759
lfingers 7.12502
lthumb 20.0643 68.6599
rfemur -63.2431 -28.4045 7.09732
rtibia 67.3065
rfoot -4.35501 13.5681
rtoes 9.97662
lfemur 7.91156 4.77418 -10.9745
ltibia 32.1952
lfoot -18.6615 29.2747
ltoes -33.5512
1349
root -0.492512 14.1043 19.4174 11.5844 32.264 11.1226
lowerback 12.5555 3.33074 -11.6681
upperback -2.06498 2.46726 -1.44679
thorax -9.81987 1.79256 4.46687
lowerneck 0.816403 -13.398 -12.8249
upperneck 2.73821 -18.3509 11.9954
head 2.97136 -9.15605 4.82563
rclavicle -1.74931e-014 -3.61788e-014
rhumerus 45.3848 -18.8725 -59.4168
rradius 17.9026
rwrist 28.0428
rhand -19.8092 -29.9601
rfingers 7.12502
rthumb 6.52405 -59.8396
lclavicle -1.74931e-014 -3.61788e-014
lhumerus -71.8407 -15.686 102.31
lradius 102.61
lwrist 61.3594
lhand -5.79624 39.695
lfingers 7.12502
lthumb 20.0282 68.6828
rfemur -63.3848 -28.3632 7.0999
rtibia 67.4734
rfoot -4.44931 13.5233
rtoes 9.95778
lfemur 7.99411 4.75529 -11.0157
ltibia 32.0736
lfoot -18.5684 29.3238
ltoes -33.6085
1350
root -0.498791 14.0983 19.4291 11.6706 32.253 11.2148
lowerback 12.5748 3.32006 -11.8595
upperback -2.08315 2.41191 -1.52318
thorax -9.84961 1.77643 4.50037
lowerneck 0.91762 -13.4316 -12.8304
upperneck 2.64558 -18.4046 12.0635
head 2.94121 -9.18604 4.85157
rclavicle -3.52843e-015 -9.54166e-015
rhumerus 45.3763 -18.9445 -59.5396
rradius 17.8005
rwrist 28.3192
rhand -19.7832 -30.0004
rfingers 7.12502
rthumb 6.5491 -59.8792
lclavicle -3.52843e-015 -9.54166e-015
lhumerus -71.95 -15.7245 102.276
lradius 102.679
lwrist 61.4478
lhand -5.81561 39.7796
lfingers 7.12502
lthumb 20.0096 68.7694
rfemur -63.516 -28.3861 7.08978
rtibia 67.6238
rfoot -4.53767 13.4955
rtoes 9.90932
lfemur 8.03146 4.7023 -11.071
ltibia 31.9748
lfoot -18.4985 29.3414
ltoes -33.6652
1351
root -0.505722 14.0931 19.4397 11.7762 32.2898 11.3248
lowerback 12.6128 3.2982 -12.0382
upperback -2.10437 2.34081 -1.59578
thorax -9.89025 1.75292 4.53368
lowerneck 1.0152 -13.4638 -12.8335
upperneck 2.55403 -18.4545 12.1093
head 2.90913 -9.21437 4.87085
rclavicle 6.78104e-014 -2.3059e-014
rhumerus 45.3114 -18.9383 -59.5195
rradius 17.7406
rwrist 28.4551
rhand -19.7282 -30.0547
rfingers 7.12502
rthumb 6.60223 -59.9318
lclavicle 6.78104e-014 -2.3059e-014
lhumerus -72.0376 -15.7819 102.251
lradius 102.707
lwrist 61.614
lhand -5.80708 39.927
lfingers 7.12502
lthumb 20.0178 68.9159
rfemur -63.6418 -28.4677 7.07535
rtibia 67.7616
rfoot -4.61839 13.477
rtoes 9.8343
lfemur 8.01453 4.62386 -11.1308
ltibia 31.9165
lfoot -18.4546 29.3312
ltoes -33.731
1352
root -0.512248 14.0885 19.4502 11.8747 32.3442 11.4194
lowerback 12.6515 3.27483 -12.1857
upperback -2.1226 2.27337 -1.65986
thorax -9.92702 1.72947 4.55824
lowerneck 1.10055 -13.4971 -12.8308
upperneck 2.46815 -18.5041 12.1393
head 2.87859 -9.24218 4.88382
rclavicle 1.97791e-014 2.90226e-014
rhumerus 45.2287 -18.9212 -59.4553
rradius 17.705
rwrist 28.5475
rhand -19.6284 -30.0999
rfingers 7.12502
rthumb 6.69855 -59.9739
lclavicle 1.97791e-014 2.90226e-014
lhumerus -72.1008 -15.8552 102.237
lradius 102.704
lwrist 61.8214
lhand -5.77866 40.1247
lfingers 7.12502
lthumb 20.0451 69.1107
rfemur -63.759 -28.569 7.07969
rtibia 67.8882
rfoot -4.69202 13.4626
rtoes 9.75415
lfemur 7.97142 4.54691 -11.1712
ltibia 31.894
lfoot -18.4416 29.3036
ltoes -33.804
1353
root -0.517837 14.0845 19.4609 11.9464 32.4049 11.4815
lowerback 12.6883 3.25097 -12.293
upperback -2.13281 2.21365 -1.71033
thorax -9.95313 1.70709 4.57415
lowerneck 1.16969 -13.5237 -12.8268
upperneck 2.38535 -18.5427 12.1622
head 2.84944 -9.26411 4.89436
rclavicle -1.03617e-014 -3.97569e-016
rhumerus 45.1423 -18.8922 -59.3679
rradius 17.6861
rwrist 28.6104
rhand -19.471 -30.1446
rfingers 7.12502
rthumb 6.85052 -60.0138
lclavicle -1.03617e-014 -3.97569e-016
lhumerus -72.1405 -15.9317 102.228
lradius 102.688
lwrist 62.0315
lhand -5.74233 40.3511
lfingers 7.12502
lthumb 20.08 69.3334
rfemur -63.8558 -28.6751 7.11094
rtibia 68.007
rfoot -4.76626 13.4529
rtoes 9.65373
lfemur 7.92935 4.48179 -11.1787
ltibia 31.8909
lfoot -18.4499 29.2667
ltoes -33.8767
1354
root -0.521366 14.081 19.4732 11.9757 32.433 11.4884
lowerback 12.692 3.23728 -12.357
upperback -2.13185 2.18174 -1.74486
thorax -9.95056 1.69424 4.57878
lowerneck 1.22638 -13.546 -12.8169
upperneck 2.30477 -18.5737 12.1769
head 2.82068 -9.28185 4.9015
rclavicle -4.44284e-014 -4.87022e-014
rhumerus 45.0708 -18.8785 -59.3018
rradius 17.6652
rwrist 28.681
rhand -19.2675 -30.1824
rfingers 7.12502
rthumb 7.04695 -60.045
lclavicle -4.44284e-014 -4.87022e-014
lhumerus -72.1658 -16.005 102.221
lradius 102.675
lwrist 62.2091
lhand -5.70886 40.5575
lfingers 7.12502
lthumb 20.1122 69.5365
rfemur -63.9384 -28.7467 7.18567
rtibia 68.1191
rfoot -4.84179 13.4519
rtoes 9.55758
lfemur 7.92644 4.46071 -11.1415
ltibia 31.8792
lfoot -18.4813 29.2298
ltoes -33.9258
1355
root -0.522869 14.078 19.4868 11.9575 32.4275 11.4384
lowerback 12.6693 3.2351 -12.3754
upperback -2.12019 2.17875 -1.76406
thorax -9.92377 1.69148 4.56977
lowerneck 1.27694 -13.5625 -12.8087
upperneck 2.22682 -18.5966 12.1938
head 2.79307 -9.29533 4.90974
rclavicle -5.65542e-014 -6.55989e-015
rhumerus 45.0136 -18.8784 -59.2535
rradius 17.6356
rwrist 28.7445
rhand -19.039 -30.218
rfingers 7.12502
rthumb 7.26755 -60.0732
lclavicle -5.65542e-014 -6.55989e-015
lhumerus -72.1804 -16.0739 102.216
lradius 102.675
lwrist 62.3325
lhand -5.69428 40.732
lfingers 7.12502
lthumb 20.1262 69.7095
rfemur -64.0003 -28.7827 7.30161
rtibia 68.2254
rfoot -4.91922 13.4633
rtoes 9.47666
lfemur 7.9762 4.48399 -11.0586
ltibia 31.8414
lfoot -18.5195 29.1969
ltoes -33.9479
